<svg width="34" height="37" viewBox="0 0 34 37" fill="none" xmlns="http://www.w3.org/2000/svg">
<path d="M16.9999 2.00004C17.2209 2.00004 17.4329 1.91224 17.5892 1.75596C17.7455 1.59968 17.8333 1.38772 17.8333 1.16671C17.8333 0.945694 17.7455 0.733732 17.5892 0.577452C17.4329 0.421172 17.2209 0.333374 16.9999 0.333374C16.7789 0.333374 16.5669 0.421172 16.4107 0.577452C16.2544 0.733732 16.1666 0.945694 16.1666 1.16671C16.1666 1.38772 16.2544 1.59968 16.4107 1.75596C16.5669 1.91224 16.7789 2.00004 16.9999 2.00004ZM16.9999 33.6667C17.2209 33.6667 17.4329 33.5789 17.5892 33.4226C17.7455 33.2663 17.8333 33.0544 17.8333 32.8334C17.8333 32.6124 17.7455 32.4004 17.5892 32.2441C17.4329 32.0878 17.2209 32 16.9999 32C16.7789 32 16.5669 32.0878 16.4107 32.2441C16.2544 32.4004 16.1666 32.6124 16.1666 32.8334C16.1666 33.0544 16.2544 33.2663 16.4107 33.4226C16.5669 33.5789 16.7789 33.6667 16.9999 33.6667ZM16.9999 7.00004C17.4419 7.00004 17.8659 6.82445 18.1784 6.51188C18.491 6.19932 18.6666 5.7754 18.6666 5.33337C18.6666 4.89135 18.491 4.46742 18.1784 4.15486C17.8659 3.8423 17.4419 3.66671 16.9999 3.66671C16.5579 3.66671 16.134 3.8423 15.8214 4.15486C15.5088 4.46742 15.3333 4.89135 15.3333 5.33337C15.3333 5.7754 15.5088 6.19932 15.8214 6.51188C16.134 6.82445 16.5579 7.00004 16.9999 7.00004ZM16.9999 30.3334C17.4419 30.3334 17.8659 30.1578 18.1784 29.8452C18.491 29.5327 18.6666 29.1087 18.6666 28.6667C18.6666 28.2247 18.491 27.8008 18.1784 27.4882C17.8659 27.1756 17.4419 27 16.9999 27C16.5579 27 16.134 27.1756 15.8214 27.4882C15.5088 27.8008 15.3333 28.2247 15.3333 28.6667C15.3333 29.1087 15.5088 29.5327 15.8214 29.8452C16.134 30.1578 16.5579 30.3334 16.9999 30.3334ZM21.5833 9.06171C21.8699 9.22466 22.1214 9.4427 22.3234 9.70327C22.5254 9.96384 22.6739 10.2618 22.7603 10.58C22.8467 10.8982 22.8693 11.2303 22.8268 11.5572C22.7843 11.8842 22.6775 12.1995 22.5127 12.485C22.3478 12.7706 22.1281 13.0207 21.8662 13.2209C21.6043 13.4212 21.3054 13.5677 20.9866 13.652C20.6679 13.7362 20.3356 13.7566 20.0089 13.712C19.6823 13.6673 19.3677 13.5585 19.0833 13.3917C18.5137 13.0578 18.0994 12.5122 17.9307 11.874C17.7619 11.2358 17.8525 10.5567 18.1826 9.98497C18.5127 9.41325 19.0555 8.99531 19.6926 8.82234C20.3297 8.64937 21.0094 8.73542 21.5833 9.06171ZM12.8333 17C12.8333 17.6631 12.5699 18.299 12.101 18.7678C11.6322 19.2366 10.9963 19.5 10.3333 19.5C9.67021 19.5 9.03432 19.2366 8.56548 18.7678C8.09664 18.299 7.83325 17.6631 7.83325 17C7.83325 16.337 8.09664 15.7011 8.56548 15.2323C9.03432 14.7634 9.67021 14.5 10.3333 14.5C10.9963 14.5 11.6322 14.7634 12.101 15.2323C12.5699 15.7011 12.8333 16.337 12.8333 17ZM26.1666 17C26.1666 17.6631 25.9032 18.299 25.4344 18.7678C24.9655 19.2366 24.3296 19.5 23.6666 19.5C23.0035 19.5 22.3677 19.2366 21.8988 18.7678C21.43 18.299 21.1666 17.6631 21.1666 17C21.1666 16.337 21.43 15.7011 21.8988 15.2323C22.3677 14.7634 23.0035 14.5 23.6666 14.5C24.3296 14.5 24.9655 14.7634 25.4344 15.2323C25.9032 15.7011 26.1666 16.337 26.1666 17ZM15.8333 24.0234C15.9974 23.739 16.1039 23.425 16.1467 23.0994C16.1896 22.7738 16.1678 22.443 16.0828 22.1258C15.9977 21.8086 15.8511 21.5113 15.6511 21.2508C15.4511 20.9903 15.2018 20.7717 14.9174 20.6075C14.633 20.4434 14.319 20.3369 13.9934 20.2941C13.6679 20.2512 13.337 20.273 13.0198 20.358C12.7026 20.4431 12.4053 20.5897 12.1448 20.7897C11.8843 20.9896 11.6657 21.239 11.5016 21.5234C11.1753 22.0973 11.0892 22.7769 11.2622 23.414C11.4352 24.0511 11.8531 24.594 12.4248 24.9241C12.9966 25.2542 13.6756 25.3447 14.3139 25.176C14.9521 25.0072 15.4977 24.5929 15.8316 24.0234H15.8333ZM22.4999 21.5234C22.3358 21.239 22.1172 20.9896 21.8567 20.7897C21.5962 20.5897 21.2989 20.4431 20.9817 20.358C20.6645 20.273 20.3337 20.2512 20.0081 20.2941C19.6825 20.3369 19.3685 20.4434 19.0841 20.6075C18.7997 20.7717 18.5504 20.9903 18.3504 21.2508C18.1505 21.5113 18.0038 21.8086 17.9187 22.1258C17.8337 22.443 17.8119 22.7738 17.8548 23.0994C17.8976 23.425 18.0041 23.739 18.1683 24.0234C18.5021 24.5929 19.0477 25.0072 19.686 25.176C20.3242 25.3447 21.0033 25.2542 21.575 24.9241C22.1467 24.594 22.5647 24.0511 22.7376 23.414C22.9106 22.7769 22.8245 22.0973 22.4983 21.5234H22.4999ZM12.4166 9.06171C12.701 8.89496 13.0156 8.78613 13.3423 8.74146C13.6689 8.6968 14.0012 8.71719 14.32 8.80146C14.6387 8.88573 14.9376 9.03222 15.1995 9.23249C15.4614 9.43276 15.6811 9.68286 15.846 9.96839C16.0108 10.2539 16.1176 10.5692 16.1601 10.8962C16.2026 11.2231 16.18 11.5553 16.0936 11.8734C16.0072 12.1916 15.8588 12.4896 15.6568 12.7501C15.4547 13.0107 15.2032 13.2288 14.9166 13.3917C14.3427 13.718 13.663 13.804 13.0259 13.6311C12.3888 13.4581 11.846 13.0402 11.5159 12.4684C11.1858 11.8967 11.0953 11.2176 11.264 10.5794C11.4327 9.94117 11.8471 9.39558 12.4166 9.06171ZM26.4283 9.92837C26.2745 10.0876 26.0906 10.2145 25.8873 10.3019C25.6839 10.3892 25.4652 10.4352 25.2439 10.4371C25.0226 10.439 24.8032 10.3969 24.5983 10.3131C24.3935 10.2293 24.2074 10.1055 24.0509 9.94903C23.8944 9.79254 23.7707 9.60646 23.6869 9.40163C23.6031 9.1968 23.5609 8.97734 23.5628 8.75604C23.5648 8.53474 23.6107 8.31604 23.6981 8.1127C23.7854 7.90936 23.9124 7.72545 24.0716 7.57171C24.3859 7.26811 24.8069 7.10012 25.2439 7.10392C25.6809 7.10771 26.0989 7.283 26.4079 7.59201C26.717 7.90102 26.8922 8.31904 26.896 8.75604C26.8998 9.19303 26.7318 9.61404 26.4283 9.92837ZM9.92825 26.4284C9.61552 26.7409 9.19145 26.9164 8.74933 26.9162C8.30721 26.9161 7.88327 26.7403 7.57075 26.4275C7.25824 26.1148 7.08276 25.6907 7.08291 25.2486C7.08307 24.8065 7.25885 24.3826 7.57159 24.07C7.72644 23.9153 7.91025 23.7926 8.11253 23.7089C8.31481 23.6252 8.53159 23.5821 8.75051 23.5822C8.96942 23.5823 9.18618 23.6255 9.3884 23.7093C9.59062 23.7932 9.77434 23.916 9.92909 24.0709C10.0838 24.2257 10.2066 24.4095 10.2903 24.6118C10.374 24.8141 10.417 25.0309 10.4169 25.2498C10.4168 25.4687 10.3736 25.6855 10.2898 25.8877C10.206 26.0899 10.0831 26.2736 9.92825 26.4284ZM26.9999 17C26.9999 17.4421 27.1755 17.866 27.4881 18.1786C27.8006 18.4911 28.2246 18.6667 28.6666 18.6667C29.1086 18.6667 29.5325 18.4911 29.8451 18.1786C30.1577 17.866 30.3333 17.4421 30.3333 17C30.3333 16.558 30.1577 16.1341 29.8451 15.8215C29.5325 15.509 29.1086 15.3334 28.6666 15.3334C28.2246 15.3334 27.8006 15.509 27.4881 15.8215C27.1755 16.1341 26.9999 16.558 26.9999 17ZM3.66659 17C3.66659 17.4421 3.84218 17.866 4.15474 18.1786C4.4673 18.4911 4.89122 18.6667 5.33325 18.6667C5.77528 18.6667 6.1992 18.4911 6.51176 18.1786C6.82432 17.866 6.99992 17.4421 6.99992 17C6.99992 16.558 6.82432 16.1341 6.51176 15.8215C6.1992 15.509 5.77528 15.3334 5.33325 15.3334C4.89122 15.3334 4.4673 15.509 4.15474 15.8215C3.84218 16.1341 3.66659 16.558 3.66659 17ZM24.0716 26.4284C23.9124 26.2746 23.7854 26.0907 23.6981 25.8874C23.6107 25.684 23.5648 25.4653 23.5628 25.244C23.5609 25.0227 23.6031 24.8033 23.6869 24.5984C23.7707 24.3936 23.8944 24.2075 24.0509 24.051C24.2074 23.8946 24.3935 23.7708 24.5983 23.687C24.8032 23.6032 25.0226 23.561 25.2439 23.563C25.4652 23.5649 25.6839 23.6109 25.8873 23.6982C26.0906 23.7856 26.2745 23.9125 26.4283 24.0717C26.7318 24.386 26.8998 24.807 26.896 25.244C26.8922 25.681 26.717 26.0991 26.4079 26.4081C26.0989 26.7171 25.6809 26.8924 25.2439 26.8962C24.8069 26.9 24.3859 26.732 24.0716 26.4284ZM7.57159 9.92837C7.4124 9.77463 7.28543 9.59072 7.19808 9.38738C7.11073 9.18404 7.06476 8.96534 7.06283 8.74404C7.06091 8.52274 7.10308 8.30328 7.18688 8.09845C7.27068 7.89362 7.39444 7.70754 7.55093 7.55105C7.70741 7.39456 7.8935 7.27081 8.09833 7.187C8.30316 7.1032 8.52262 7.06103 8.74392 7.06296C8.96522 7.06488 9.18392 7.11086 9.38726 7.1982C9.5906 7.28555 9.77451 7.41252 9.92825 7.57171C10.2318 7.88604 10.3998 8.30705 10.396 8.74404C10.3922 9.18104 10.217 9.59906 9.90795 9.90807C9.59894 10.2171 9.18091 10.3924 8.74392 10.3962C8.30693 10.4 7.88592 10.232 7.57159 9.92837ZM25.6383 3.70504C25.5839 3.80058 25.5113 3.88443 25.4244 3.95176C25.3375 4.0191 25.2382 4.06859 25.1322 4.09738C25.0261 4.12618 24.9154 4.13371 24.8064 4.11954C24.6974 4.10538 24.5923 4.06979 24.4971 4.01484C24.402 3.95989 24.3186 3.88666 24.2518 3.79936C24.1851 3.71206 24.1363 3.61241 24.1082 3.50616C24.0801 3.39991 24.0733 3.28916 24.0882 3.18027C24.1031 3.07138 24.1393 2.96652 24.1949 2.87171C24.3062 2.68187 24.4881 2.54376 24.7008 2.48751C24.9136 2.43126 25.1399 2.46145 25.3305 2.57148C25.5211 2.68151 25.6604 2.86245 25.718 3.07482C25.7757 3.28719 25.747 3.51374 25.6383 3.70504ZM9.80492 31.1284C9.7506 31.2239 9.67792 31.3078 9.59106 31.3751C9.50421 31.4424 9.40489 31.4919 9.29883 31.5207C9.19277 31.5495 9.08206 31.557 8.97308 31.5429C8.86409 31.5287 8.75899 31.4931 8.66381 31.4382C8.56864 31.3832 8.48527 31.31 8.41851 31.2227C8.35176 31.1354 8.30293 31.0357 8.27484 30.9295C8.24675 30.8232 8.23995 30.7125 8.25484 30.6036C8.26972 30.4947 8.306 30.3898 8.36158 30.295C8.47288 30.1052 8.65474 29.9671 8.86749 29.9108C9.08023 29.8546 9.30659 29.8848 9.49716 29.9948C9.68774 30.1048 9.82705 30.2858 9.88471 30.4982C9.94237 30.7105 9.91368 30.9371 9.80492 31.1284ZM29.9899 9.50004C30.0442 9.59558 30.1169 9.67943 30.2038 9.74676C30.2906 9.8141 30.3899 9.86359 30.496 9.89238C30.6021 9.92118 30.7128 9.92871 30.8218 9.91454C30.9307 9.90038 31.0359 9.86479 31.131 9.80984C31.2262 9.75489 31.3096 9.68166 31.3763 9.59436C31.4431 9.50706 31.4919 9.40741 31.52 9.30116C31.5481 9.19491 31.5549 9.08416 31.54 8.97527C31.5251 8.86638 31.4888 8.76152 31.4333 8.66671C31.322 8.47687 31.1401 8.33876 30.9273 8.28251C30.7146 8.22626 30.4882 8.25645 30.2977 8.36648C30.1071 8.47651 29.9678 8.65745 29.9101 8.86982C29.8525 9.08219 29.8812 9.30874 29.9899 9.50004ZM2.56659 25.3334C2.6209 25.4289 2.69358 25.5128 2.78044 25.5801C2.8673 25.6474 2.96661 25.6969 3.07267 25.7257C3.17874 25.7545 3.28944 25.762 3.39843 25.7479C3.50741 25.7337 3.61252 25.6981 3.70769 25.6432C3.80287 25.5882 3.88623 25.515 3.95299 25.4277C4.01975 25.3404 4.06858 25.2407 4.09667 25.1345C4.12476 25.0282 4.13156 24.9175 4.11667 24.8086C4.10178 24.6997 4.0655 24.5948 4.00992 24.5C3.89863 24.3102 3.71676 24.1721 3.50402 24.1158C3.29127 24.0596 3.06491 24.0898 2.87434 24.1998C2.68377 24.3098 2.54445 24.4908 2.48679 24.7032C2.42914 24.9155 2.45782 25.1421 2.56659 25.3334ZM32.8333 17.8334C32.6122 17.8334 32.4003 17.7456 32.244 17.5893C32.0877 17.433 31.9999 17.2211 31.9999 17C31.9999 16.779 32.0877 16.5671 32.244 16.4108C32.4003 16.2545 32.6122 16.1667 32.8333 16.1667C33.0543 16.1667 33.2662 16.2545 33.4225 16.4108C33.5788 16.5671 33.6666 16.779 33.6666 17C33.6666 17.2211 33.5788 17.433 33.4225 17.5893C33.2662 17.7456 33.0543 17.8334 32.8333 17.8334ZM1.16659 17.8334C0.945572 17.8334 0.73361 17.7456 0.57733 17.5893C0.421049 17.433 0.333252 17.2211 0.333252 17C0.333252 16.779 0.421049 16.5671 0.57733 16.4108C0.73361 16.2545 0.945572 16.1667 1.16659 16.1667C1.3876 16.1667 1.59956 16.2545 1.75584 16.4108C1.91212 16.5671 1.99992 16.779 1.99992 17C1.99992 17.2211 1.91212 17.433 1.75584 17.5893C1.59956 17.7456 1.3876 17.8334 1.16659 17.8334ZM29.9899 24.5C29.9343 24.5948 29.8981 24.6997 29.8832 24.8086C29.8683 24.9175 29.8751 25.0282 29.9032 25.1345C29.9313 25.2407 29.9801 25.3404 30.0468 25.4277C30.1136 25.515 30.197 25.5882 30.2921 25.6432C30.3873 25.6981 30.4924 25.7337 30.6014 25.7479C30.7104 25.762 30.8211 25.7545 30.9272 25.7257C31.0332 25.6969 31.1325 25.6474 31.2194 25.5801C31.3063 25.5128 31.3789 25.4289 31.4333 25.3334C31.542 25.1421 31.5707 24.9155 31.513 24.7032C31.4554 24.4908 31.3161 24.3098 31.1255 24.1998C30.9349 24.0898 30.7086 24.0596 30.4958 24.1158C30.2831 24.1721 30.1012 24.3102 29.9899 24.5ZM2.56659 8.66671C2.511 8.76152 2.47472 8.86638 2.45984 8.97527C2.44495 9.08416 2.45175 9.19491 2.47984 9.30116C2.50793 9.40741 2.55676 9.50706 2.62351 9.59436C2.69027 9.68166 2.77364 9.75489 2.86881 9.80984C2.96399 9.86479 3.06909 9.90038 3.17808 9.91454C3.28706 9.92871 3.39777 9.92118 3.50383 9.89238C3.60989 9.86359 3.70921 9.8141 3.79606 9.74676C3.88292 9.67943 3.9556 9.59558 4.00992 9.50004C4.11868 9.30874 4.14737 9.08219 4.08971 8.86982C4.03205 8.65745 3.89274 8.47651 3.70216 8.36648C3.51159 8.25645 3.28523 8.22626 3.07249 8.28251C2.85974 8.33876 2.67788 8.47687 2.56659 8.66671ZM24.1949 31.1284C24.1393 31.0336 24.1031 30.9287 24.0882 30.8198C24.0733 30.7109 24.0801 30.6002 24.1082 30.4939C24.1363 30.3877 24.1851 30.288 24.2518 30.2007C24.3186 30.1134 24.402 30.0402 24.4971 29.9852C24.5923 29.9303 24.6974 29.8947 24.8064 29.8805C24.9154 29.8664 25.0261 29.8739 25.1322 29.9027C25.2382 29.9315 25.3375 29.981 25.4244 30.0483C25.5113 30.1157 25.5839 30.1995 25.6383 30.295C25.747 30.4863 25.7757 30.7129 25.718 30.9253C25.6604 31.1376 25.5211 31.3186 25.3305 31.4286C25.1399 31.5386 24.9136 31.5688 24.7008 31.5126C24.4881 31.4563 24.3062 31.3182 24.1949 31.1284ZM8.36158 3.70504C8.306 3.61023 8.26972 3.50537 8.25484 3.39648C8.23995 3.28759 8.24675 3.17683 8.27484 3.07059C8.30293 2.96434 8.35176 2.86469 8.41851 2.77739C8.48527 2.69009 8.56864 2.61686 8.66381 2.5619C8.75899 2.50695 8.86409 2.47137 8.97308 2.45721C9.08206 2.44304 9.19277 2.45057 9.29883 2.47937C9.40489 2.50816 9.50421 2.55765 9.59106 2.62498C9.67792 2.69232 9.7506 2.77617 9.80492 2.87171C9.91368 3.06301 9.94237 3.28956 9.88471 3.50193C9.82705 3.7143 9.68774 3.89524 9.49716 4.00527C9.30659 4.1153 9.08023 4.14549 8.86749 4.08924C8.65474 4.03299 8.47288 3.89488 8.36158 3.70504Z" fill="white"/>
</svg>
