<svg width="40" height="40" viewBox="0 0 40 40" fill="none" xmlns="http://www.w3.org/2000/svg">
<path fill-rule="evenodd" clip-rule="evenodd" d="M5.07457 19.4586C5.07457 27.576 10.9599 33.1066 17.5706 34.2506C17.7504 34.2818 17.9223 34.3481 18.0765 34.4457C18.2307 34.5433 18.3642 34.6703 18.4693 34.8195C18.5744 34.9687 18.6491 35.1371 18.6892 35.3152C18.7292 35.4933 18.7337 35.6775 18.7026 35.8573C18.6714 36.0371 18.6051 36.209 18.5075 36.3632C18.4099 36.5175 18.2829 36.6509 18.1337 36.756C17.9845 36.8612 17.816 36.9359 17.638 36.9759C17.4599 37.0159 17.2757 37.0205 17.0959 36.9893C9.33323 35.6453 2.2959 29.1013 2.2959 19.4586C2.2959 15.36 4.1599 12.1386 6.3359 9.69062C7.8959 7.93595 9.6799 6.50929 11.1146 5.41862H6.7519C6.39828 5.41862 6.05914 5.27814 5.80909 5.0281C5.55904 4.77805 5.41857 4.43891 5.41857 4.08529C5.41857 3.73166 5.55904 3.39253 5.80909 3.14248C6.05914 2.89243 6.39828 2.75195 6.7519 2.75195H14.7519C15.1055 2.75195 15.4447 2.89243 15.6947 3.14248C15.9448 3.39253 16.0852 3.73166 16.0852 4.08529V12.0853C16.0852 12.4389 15.9448 12.778 15.6947 13.0281C15.4447 13.2781 15.1055 13.4186 14.7519 13.4186C14.3983 13.4186 14.0591 13.2781 13.8091 13.0281C13.559 12.778 13.4186 12.4389 13.4186 12.0853V7.16262L13.4159 7.16795C11.8906 8.31462 10.0292 9.71995 8.4159 11.536C6.50923 13.68 5.07457 16.2746 5.07457 19.4586ZM34.6959 20.5386C34.6959 12.5066 28.9359 7.01062 22.4106 5.78395C22.2287 5.75309 22.0548 5.68633 21.899 5.58754C21.7432 5.48876 21.6086 5.35994 21.5032 5.20861C21.3977 5.05727 21.3234 4.88644 21.2847 4.70609C21.2459 4.52573 21.2434 4.33947 21.2774 4.15816C21.3114 3.97685 21.3812 3.80412 21.4827 3.65006C21.5841 3.496 21.7152 3.36368 21.8684 3.26084C22.0215 3.15799 22.1936 3.08667 22.3746 3.05103C22.5556 3.0154 22.7419 3.01616 22.9226 3.05329C30.5866 4.49329 37.4746 11 37.4746 20.5386C37.4746 24.6373 35.6106 27.856 33.4346 30.3066C31.8746 32.0613 30.0906 33.488 28.6559 34.5786H33.0186C33.3722 34.5786 33.7113 34.7191 33.9614 34.9691C34.2114 35.2192 34.3519 35.5583 34.3519 35.912C34.3519 36.2656 34.2114 36.6047 33.9614 36.8548C33.7113 37.1048 33.3722 37.2453 33.0186 37.2453H25.0186C24.6649 37.2453 24.3258 37.1048 24.0758 36.8548C23.8257 36.6047 23.6852 36.2656 23.6852 35.912V27.912C23.6852 27.5583 23.8257 27.2192 24.0758 26.9691C24.3258 26.7191 24.6649 26.5786 25.0186 26.5786C25.3722 26.5786 25.7113 26.7191 25.9614 26.9691C26.2114 27.2192 26.3519 27.5583 26.3519 27.912V32.832H26.3572C27.8799 31.68 29.7439 30.2773 31.3546 28.4586C33.2612 26.3173 34.6959 23.7253 34.6959 20.5386Z" fill="white"/>
</svg>
