<svg width="40" height="40" viewBox="0 0 40 40" fill="none" xmlns="http://www.w3.org/2000/svg">
<path d="M25.3569 8.57146C25.779 8.57146 26.197 8.65459 26.587 8.81613C26.977 8.97766 27.3313 9.21442 27.6298 9.5129C27.9282 9.81137 28.165 10.1657 28.3265 10.5557C28.4881 10.9457 28.5712 11.3636 28.5712 11.7857C28.5712 12.2078 28.4881 12.6258 28.3265 13.0158C28.165 13.4058 27.9282 13.7601 27.6298 14.0586C27.3313 14.3571 26.977 14.5938 26.587 14.7554C26.197 14.9169 25.779 15 25.3569 15C24.5044 15 23.6869 14.6614 23.0841 14.0586C22.4813 13.4558 22.1426 12.6382 22.1426 11.7857C22.1426 10.9333 22.4813 10.1157 23.0841 9.5129C23.6869 8.9101 24.5044 8.57146 25.3569 8.57146ZM3.92836 12.8572H20.1069C20.3542 14.067 21.0118 15.1543 21.9685 15.9352C22.9251 16.716 24.1221 17.1425 25.3569 17.1425C26.5918 17.1425 27.7888 16.716 28.7454 15.9352C29.702 15.1543 30.3596 14.067 30.6069 12.8572H36.0712C36.3554 12.8572 36.6279 12.7443 36.8288 12.5434C37.0298 12.3424 37.1426 12.0699 37.1426 11.7857C37.1426 11.5016 37.0298 11.2291 36.8288 11.0281C36.6279 10.8272 36.3554 10.7143 36.0712 10.7143H30.6069C30.3596 9.50447 29.702 8.41717 28.7454 7.63631C27.7888 6.85545 26.5918 6.42896 25.3569 6.42896C24.1221 6.42896 22.9251 6.85545 21.9685 7.63631C21.0118 8.41717 20.3542 9.50447 20.1069 10.7143H3.92836C3.6442 10.7143 3.37168 10.8272 3.17075 11.0281C2.96982 11.2291 2.85693 11.5016 2.85693 11.7857C2.85693 12.0699 2.96982 12.3424 3.17075 12.5434C3.37168 12.7443 3.6442 12.8572 3.92836 12.8572ZM14.6426 25C14.2205 25 13.8026 25.0832 13.4126 25.2447C13.0226 25.4062 12.6683 25.643 12.3698 25.9415C12.0713 26.2399 11.8346 26.5943 11.673 26.9843C11.5115 27.3742 11.4284 27.7922 11.4284 28.2143C11.4284 28.6364 11.5115 29.0544 11.673 29.4444C11.8346 29.8343 12.0713 30.1887 12.3698 30.4872C12.6683 30.7856 13.0226 31.0224 13.4126 31.1839C13.8026 31.3455 14.2205 31.4286 14.6426 31.4286C15.4951 31.4286 16.3127 31.09 16.9155 30.4872C17.5183 29.8844 17.8569 29.0668 17.8569 28.2143C17.8569 27.3618 17.5183 26.5443 16.9155 25.9415C16.3127 25.3387 15.4951 25 14.6426 25ZM14.6426 22.8572C15.8776 22.8569 17.0748 23.2834 18.0315 24.0643C18.9882 24.8453 19.6457 25.9329 19.8926 27.1429H36.0712C36.3554 27.1429 36.6279 27.2558 36.8288 27.4567C37.0298 27.6576 37.1426 27.9302 37.1426 28.2143C37.1426 28.4985 37.0298 28.771 36.8288 28.9719C36.6279 29.1729 36.3554 29.2857 36.0712 29.2857H19.8926C19.6453 30.4956 18.9877 31.5829 18.0311 32.3637C17.0745 33.1446 15.8775 33.5711 14.6426 33.5711C13.4078 33.5711 12.2108 33.1446 11.2542 32.3637C10.2975 31.5829 9.63997 30.4956 9.39265 29.2857H3.92836C3.6442 29.2857 3.37168 29.1729 3.17075 28.9719C2.96982 28.771 2.85693 28.4985 2.85693 28.2143C2.85693 27.9302 2.96982 27.6576 3.17075 27.4567C3.37168 27.2558 3.6442 27.1429 3.92836 27.1429H9.39265C9.63964 25.9329 10.2971 24.8453 11.2538 24.0643C12.2105 23.2834 13.4077 22.8569 14.6426 22.8572Z" fill="white"/>
</svg>
