<svg width="40" height="40" viewBox="0 0 40 40" fill="none" xmlns="http://www.w3.org/2000/svg">
<path d="M19.9999 13.4383C20.8679 13.4245 21.7299 13.5835 22.5359 13.906C23.3418 14.2286 24.0754 14.7083 24.6941 15.3172C25.3128 15.9261 25.8042 16.652 26.1396 17.4527C26.475 18.2534 26.6477 19.1128 26.6477 19.9808C26.6477 20.8489 26.475 21.7083 26.1396 22.509C25.8042 23.3096 25.3128 24.0355 24.6941 24.6444C24.0754 25.2533 23.3418 25.7331 22.5359 26.0556C21.7299 26.3782 20.8679 26.5372 19.9999 26.5233C18.2828 26.4959 16.6454 25.7946 15.4408 24.5706C14.2362 23.3466 13.561 21.6981 13.561 19.9808C13.561 18.2635 14.2362 16.615 15.4408 15.3911C16.6454 14.1671 18.2828 13.4657 19.9999 13.4383Z" fill="white"/>
<path d="M16.5599 15.9216L16.3633 16.4466C17.5249 16.4466 17.3749 16.6066 18.0299 15.9216C18.7349 15.1716 18.5849 15.5283 19.7366 15.49C21.4999 15.4633 20.4499 14.3383 22.9066 14.3383C21.0499 14.825 21.4899 15.3216 20.2533 15.9783C19.2153 16.5571 18.0635 16.9023 16.8783 16.99L17.5449 17.6466C20.3649 17.73 19.9816 18.63 21.7899 18.35C22.8216 18.2 24.3216 18.2833 25.3433 18.51L26.2433 18.9683L23.2433 18.8183C23.9266 19.8683 23.2066 18.7816 23.1499 22.025C23.4316 22.2416 23.5899 22.3716 23.9283 22.5866C24.3783 22.9066 24.4066 22.86 24.5833 23.29C24.8083 23.6933 24.7433 23.9566 24.8749 24.3783C25.7307 23.4405 26.2948 22.2737 26.4983 21.0205C26.7018 19.7674 26.5358 18.482 26.0207 17.3217C25.5055 16.1613 24.6635 15.1761 23.5976 14.4864C22.5316 13.7968 21.2879 13.4326 20.0183 13.4383H19.6999C19.4283 13.71 19.0433 13.86 18.2833 14.655C17.6466 15.34 17.0283 15.555 16.5599 15.9216ZM24.3399 24.9116C23.7866 24.35 23.0283 24.64 20.8716 24.1716C20.2149 24.0216 19.5316 23.7216 19.1849 23.675C18.2466 23.5533 18.7999 23.9283 17.5616 23.5816C17.9099 24.3866 18.0499 23.8066 18.0949 24.9783C17.6949 24.8283 17.6649 24.7616 17.3466 24.5283L15.5366 22.99C15.2283 22.5866 15.1899 22.39 14.7216 22.1366C14.3099 21.9033 14.1033 21.9216 13.6899 21.6866C14.1245 23.3125 15.1683 24.7088 16.6048 25.5857C18.0412 26.4627 19.7601 26.7531 21.4049 26.3966C22.4942 26.1619 23.5049 25.6511 24.3399 24.9133" fill="white"/>
<path d="M19.5698 20.2717C19.2498 20.92 18.7815 21.05 17.8815 21.1167C16.5132 21.22 16.7482 21.4167 15.8098 21.6217L15.7915 21.9883C16.3815 22.1 16.9248 22.4383 17.2632 22.9917C19.1382 23.61 17.8998 23.1583 18.7348 23.1217C19.1098 23.105 19.8882 23.545 20.4215 23.61L22.2498 23.9283C23.2815 24.06 23.4032 23.695 24.2098 24.2567L24.2382 23.29C21.8932 21.7167 23.6565 19.8233 22.2882 19.7283C21.2382 19.6617 20.3182 20.2167 19.5698 20.2617V20.2717Z" fill="white"/>
<path d="M13.635 21.52C16.26 21.6516 14.3567 21.7067 16.1483 21.07C16.6917 20.8733 17.095 21.0317 17.7133 20.9567C18.3133 20.8633 18.4817 20.5533 18.9133 20.2816C19.9167 19.2983 21.0233 19.965 21.8567 19.515C21.2383 19.12 21.07 19.4483 20.385 19.1383C19.8883 18.895 19.9533 18.735 19.3533 18.5016C18.2483 18.06 17.3483 18.735 16.8417 17.6567C16.1483 17.3283 15.66 17.2267 15.0417 17.63C14.385 18.0517 14.4883 18.0967 13.635 18.3967C13.3743 19.4214 13.3743 20.4952 13.635 21.52ZM13.7383 18.0983C14.5267 17.91 14.17 17.865 14.77 17.3483C15.7733 16.4767 15.5567 17.4316 15.1633 16.26C16.045 16.71 15.82 17.0667 16.3917 15.9433L16.5417 14.4417C15.1921 15.2773 14.1949 16.578 13.7383 18.0983Z" fill="white"/>
<path fill-rule="evenodd" clip-rule="evenodd" d="M34.0432 6.0317C33.6215 4.59836 27.0115 4.6717 19.2498 6.1717C11.5065 7.6717 5.54316 10.0434 5.95649 11.4684C6.37816 12.9034 12.9865 12.8284 20.7498 11.3284C28.5132 9.82836 34.4548 7.4567 34.0432 6.0317ZM21.6665 10.39C27.7332 9.07837 33.1232 7.0817 33.1232 6.45336C33.1232 5.2167 26.8232 5.5167 20.3898 6.65003C13.7065 7.8317 6.89149 10.0917 6.89149 11.16C6.89149 12.3134 14.6815 11.9 21.6748 10.3917L21.6665 10.39ZM34.0415 28.5317C33.6198 27.0967 27.0098 27.1717 19.2482 28.6717C11.5048 30.1717 5.54149 32.5434 5.95482 33.9684C6.37649 35.4017 12.9848 35.3284 20.7482 33.8284C28.5115 32.3284 34.4532 29.9567 34.0415 28.5317ZM21.6665 32.89C27.7332 31.5784 33.1232 29.5817 33.1232 28.9534C33.1232 27.715 26.8232 28.015 20.3898 29.15C13.7065 30.3317 6.89149 32.59 6.89149 33.66C6.89149 34.8117 14.6815 34.4 21.6748 32.89H21.6665Z" fill="white"/>
</svg>
