<svg width="40" height="40" viewBox="0 0 40 40" fill="none" xmlns="http://www.w3.org/2000/svg">
<path d="M12.3331 28.75C11.1665 29.7222 9.95146 30.1667 8.68813 30.0833C7.42479 30 6.32035 29.5694 5.37479 28.7917C4.42924 28.0139 3.78368 26.9933 3.43813 25.73C3.09257 24.4667 3.32146 23.1678 4.12479 21.8333L7.24979 16.6667C6.55535 16.0556 6.00702 15.3194 5.60479 14.4583C5.20257 13.5972 5.00091 12.6667 4.99979 11.6667C4.99979 9.83333 5.65257 8.26389 6.95813 6.95833C8.26368 5.65278 9.83313 5 11.6665 5C13.4998 5 15.0692 5.65278 16.3748 6.95833C17.6803 8.26389 18.3331 9.83333 18.3331 11.6667C18.3331 13.5 17.6803 15.0694 16.3748 16.375C15.0692 17.6806 13.4998 18.3333 11.6665 18.3333C11.4165 18.3333 11.1665 18.3194 10.9165 18.2917C10.6665 18.2639 10.4303 18.2222 10.2081 18.1667L6.99979 23.5833C6.69424 24.0833 6.59702 24.5767 6.70813 25.0633C6.81924 25.55 7.05535 25.9456 7.41646 26.25C7.77757 26.5544 8.20813 26.7283 8.70813 26.7717C9.20813 26.815 9.69424 26.6411 10.1665 26.25L27.6665 11.2083C28.8331 10.2361 30.0553 9.79833 31.3331 9.895C32.6109 9.99167 33.722 10.4294 34.6665 11.2083C35.6109 11.9872 36.2498 13.0083 36.5831 14.2717C36.9165 15.535 36.6804 16.8333 35.8748 18.1667L32.7498 23.3333C33.4442 23.9444 33.9931 24.6806 34.3965 25.5417C34.7998 26.4028 35.0009 27.3333 34.9998 28.3333C34.9998 30.1667 34.347 31.7361 33.0415 33.0417C31.7359 34.3472 30.1665 35 28.3331 35C26.4998 35 24.9303 34.3472 23.6248 33.0417C22.3192 31.7361 21.6665 30.1667 21.6665 28.3333C21.6665 26.5 22.3192 24.9306 23.6248 23.625C24.9303 22.3194 26.4998 21.6667 28.3331 21.6667C28.5831 21.6667 28.8265 21.6806 29.0631 21.7083C29.2998 21.7361 29.5287 21.7778 29.7498 21.8333L32.9998 16.4167C33.3053 15.9167 33.4026 15.4233 33.2915 14.9367C33.1803 14.45 32.9442 14.0544 32.5831 13.75C32.222 13.4456 31.7915 13.2722 31.2915 13.23C30.7915 13.1878 30.3053 13.3611 29.8331 13.75L12.3331 28.75ZM11.6665 15C12.5831 15 13.3681 14.6739 14.0215 14.0217C14.6748 13.3694 15.0009 12.5844 14.9998 11.6667C14.9987 10.7489 14.6726 9.96444 14.0215 9.31333C13.3703 8.66222 12.5853 8.33556 11.6665 8.33333C10.7476 8.33111 9.96313 8.65778 9.31313 9.31333C8.66313 9.96889 8.33646 10.7533 8.33313 11.6667C8.32979 12.58 8.65646 13.365 9.31313 14.0217C9.96979 14.6783 10.7542 15.0044 11.6665 15ZM28.3331 31.6667C29.2498 31.6667 30.0348 31.3406 30.6881 30.6883C31.3415 30.0361 31.6676 29.2511 31.6665 28.3333C31.6653 27.4156 31.3392 26.6311 30.6881 25.98C30.037 25.3289 29.252 25.0022 28.3331 25C27.4142 24.9978 26.6298 25.3244 25.9798 25.98C25.3298 26.6356 25.0031 27.42 24.9998 28.3333C24.9965 29.2467 25.3231 30.0317 25.9798 30.6883C26.6365 31.345 27.4209 31.6711 28.3331 31.6667Z" fill="white"/>
</svg>
